<?xml version="1.0" encoding="UTF-8" standalone="no"?>
<!-- Created with Inkscape (http://www.inkscape.org/) -->

<svg
   xmlns:dc="http://purl.org/dc/elements/1.1/"
   xmlns:cc="http://creativecommons.org/ns#"
   xmlns:rdf="http://www.w3.org/1999/02/22-rdf-syntax-ns#"
   xmlns:svg="http://www.w3.org/2000/svg"
   xmlns="http://www.w3.org/2000/svg"
   xmlns:xlink="http://www.w3.org/1999/xlink"
   xmlns:sodipodi="http://sodipodi.sourceforge.net/DTD/sodipodi-0.dtd"
   xmlns:inkscape="http://www.inkscape.org/namespaces/inkscape"
   width="644.67719"
   height="434.15067"
   id="svg2"
   sodipodi:version="0.32"
   inkscape:version="0.91 r13725"
   version="1.0"
   sodipodi:docname="bird.svg"
   inkscape:output_extension="org.inkscape.output.svg.inkscape"
   style="display:inline">
  <defs
     id="defs4">
    <linearGradient
       id="linearGradient3334"
       inkscape:collect="always">
      <stop
         id="stop3336"
         offset="0"
         style="stop-color: rgb(59, 61, 78); stop-opacity: 1;" />
      <stop
         style="stop-color: rgb(28, 31, 36); stop-opacity: 1;"
         offset="1"
         id="stop3338" />
      <stop
         id="stop3340"
         offset="1"
         style="stop-color: rgb(59, 61, 78); stop-opacity: 0;" />
    </linearGradient>
    <linearGradient
       inkscape:collect="always"
       id="linearGradient3322">
      <stop
         style="stop-color: rgb(59, 61, 78); stop-opacity: 1;"
         offset="0"
         id="stop3324" />
      <stop
         id="stop3330"
         offset="0.95806545"
         style="stop-color: rgb(28, 31, 36); stop-opacity: 1;" />
      <stop
         style="stop-color: rgb(59, 61, 78); stop-opacity: 0;"
         offset="1"
         id="stop3326" />
    </linearGradient>
    <linearGradient
       inkscape:collect="always"
       id="linearGradient3312">
      <stop
         style="stop-color: rgb(69, 63, 73); stop-opacity: 1;"
         offset="0"
         id="stop3314" />
      <stop
         style="stop-color: rgb(28, 31, 36); stop-opacity: 1;"
         offset="1"
         id="stop3316" />
    </linearGradient>
    <linearGradient
       inkscape:collect="always"
       id="linearGradient3302">
      <stop
         style="stop-color: rgb(219, 219, 227); stop-opacity: 1;"
         offset="0"
         id="stop3304" />
      <stop
         style="stop-color: rgb(111, 111, 145); stop-opacity: 1;"
         offset="1"
         id="stop3306" />
    </linearGradient>
    <linearGradient
       inkscape:collect="always"
       id="linearGradient3291">
      <stop
         style="stop-color: rgb(124, 75, 84); stop-opacity: 1;"
         offset="0"
         id="stop3293" />
      <stop
         style="stop-color: rgb(102, 0, 128); stop-opacity: 1;"
         offset="1"
         id="stop3295" />
    </linearGradient>
    <linearGradient
       id="linearGradient3267">
      <stop
         style="stop-color: rgb(31, 28, 36); stop-opacity: 1;"
         offset="0"
         id="stop3269" />
      <stop
         style="stop-color: rgb(111, 105, 122); stop-opacity: 1;"
         offset="1"
         id="stop3271" />
    </linearGradient>
    <linearGradient
       inkscape:collect="always"
       id="linearGradient3254">
      <stop
         style="stop-color: rgb(119, 55, 91); stop-opacity: 1;"
         offset="0"
         id="stop3256" />
      <stop
         style="stop-color: rgb(68, 22, 80); stop-opacity: 1;"
         offset="1"
         id="stop3258" />
    </linearGradient>
    <inkscape:perspective
       sodipodi:type="inkscape:persp3d"
       inkscape:vp_x="0 : 526.18109 : 1"
       inkscape:vp_y="0 : 1000 : 0"
       inkscape:vp_z="744.09448 : 526.18109 : 1"
       inkscape:persp3d-origin="372.04724 : 350.78739 : 1"
       id="perspective10" />
    <inkscape:perspective
       id="perspective2390"
       inkscape:persp3d-origin="372.04724 : 350.78739 : 1"
       inkscape:vp_z="744.09448 : 526.18109 : 1"
       inkscape:vp_y="0 : 1000 : 0"
       inkscape:vp_x="0 : 526.18109 : 1"
       sodipodi:type="inkscape:persp3d" />
    <inkscape:perspective
       id="perspective2403"
       inkscape:persp3d-origin="372.04724 : 350.78739 : 1"
       inkscape:vp_z="744.09448 : 526.18109 : 1"
       inkscape:vp_y="0 : 1000 : 0"
       inkscape:vp_x="0 : 526.18109 : 1"
       sodipodi:type="inkscape:persp3d" />
    <linearGradient
       inkscape:collect="always"
       xlink:href="#linearGradient3254"
       id="linearGradient3260"
       x1="432.85712"
       y1="250"
       x2="161.42857"
       y2="469.99997"
       gradientUnits="userSpaceOnUse" />
    <linearGradient
       inkscape:collect="always"
       xlink:href="#linearGradient3267"
       id="linearGradient3273"
       x1="461.60715"
       y1="196.78571"
       x2="376.25"
       y2="180.35715"
       gradientUnits="userSpaceOnUse" />
    <linearGradient
       inkscape:collect="always"
       xlink:href="#linearGradient3254"
       id="linearGradient3281"
       x1="455.07373"
       y1="250.98209"
       x2="645.48749"
       y2="384.82727"
       gradientUnits="userSpaceOnUse" />
    <linearGradient
       inkscape:collect="always"
       xlink:href="#linearGradient3302"
       id="linearGradient3289"
       x1="505.58133"
       y1="208.0506"
       x2="560.63464"
       y2="338.36029"
       gradientUnits="userSpaceOnUse" />
    <linearGradient
       inkscape:collect="always"
       xlink:href="#linearGradient3291"
       id="linearGradient3297"
       x1="461.13461"
       y1="163.09882"
       x2="466.69049"
       y2="180.27141"
       gradientUnits="userSpaceOnUse" />
    <linearGradient
       inkscape:collect="always"
       xlink:href="#linearGradient3302"
       id="linearGradient3308"
       x1="340.97385"
       y1="447.20731"
       x2="302.88116"
       y2="473.83893"
       gradientUnits="userSpaceOnUse"
       gradientTransform="translate(-1.26269,0.252538)" />
    <linearGradient
       inkscape:collect="always"
       xlink:href="#linearGradient3312"
       id="linearGradient3318"
       x1="263.57141"
       y1="449.28571"
       x2="34.999992"
       y2="627.85712"
       gradientUnits="userSpaceOnUse" />
    <linearGradient
       inkscape:collect="always"
       xlink:href="#linearGradient3267"
       id="linearGradient3320"
       x1="-4.1031466"
       y1="612.63556"
       x2="186.96249"
       y2="444.06412"
       gradientUnits="userSpaceOnUse" />
    <linearGradient
       inkscape:collect="always"
       xlink:href="#linearGradient3322"
       id="linearGradient3328"
       x1="413.65747"
       y1="490.89331"
       x2="347.74246"
       y2="457.55829"
       gradientUnits="userSpaceOnUse" />
    <linearGradient
       inkscape:collect="always"
       xlink:href="#linearGradient3334"
       id="linearGradient3332"
       x1="450.52536"
       y1="526.87427"
       x2="366.68536"
       y2="442.52655"
       gradientUnits="userSpaceOnUse" />
  </defs>
  <sodipodi:namedview
     id="base"
     pagecolor="#ffffff"
     bordercolor="#666666"
     borderopacity="1.0"
     inkscape:pageopacity="0.0"
     inkscape:pageshadow="2"
     inkscape:zoom="0.98994949"
     inkscape:cx="141.42122"
     inkscape:cy="194.06848"
     inkscape:document-units="px"
     inkscape:current-layer="layer2"
     showgrid="false"
     inkscape:window-width="1280"
     inkscape:window-height="966"
     inkscape:window-x="0"
     inkscape:window-y="27"
     inkscape:window-maximized="0" />
  <metadata
     id="metadata7">
    <rdf:RDF>
      <cc:Work
         rdf:about="">
        <dc:format>image/svg+xml</dc:format>
        <dc:type
           rdf:resource="http://purl.org/dc/dcmitype/StillImage" />
      </cc:Work>
    </rdf:RDF>
  </metadata>
  <g
     inkscape:groupmode="layer"
     id="layer2"
     inkscape:label="dessin"
     style="display:inline"
     transform="translate(-30.182043,-153.77666)">
    <path
       style="fill:#3b3d4e;fill-opacity:1;fill-rule:evenodd;stroke:none;stroke-width:1px;stroke-linecap:butt;stroke-linejoin:miter;stroke-opacity:1;display:inline"
       d="M 399.28571,534.28571 C 399.28571,534.28571 405.71429,540.35714 415.35714,531.78571 L 419.10189,529.26033 C 417.31617,529.61748 412.48206,526.29859 411.05348,527.37002 C 409.62491,528.44145 399.28571,534.28571 399.28571,534.28571 z"
       id="path3344"
       sodipodi:nodetypes="cccsc" />
    <path
       style="fill:#3b3d4e;fill-opacity:1;fill-rule:evenodd;stroke:none;stroke-width:1px;stroke-linecap:butt;stroke-linejoin:miter;stroke-opacity:1;display:inline"
       d="M 438.5281,531.1686 C 438.5281,531.1686 438.92857,543.92857 441.78571,543.92857 C 444.64286,543.92857 441.07143,557.85714 435,560.71429 C 435,560.71429 447.5,563.21429 447.5,540.35714 C 447.5,540.35714 449.28571,527.5359 451.07143,525.75018 C 452.85714,523.96447 439.24239,531.1686 438.5281,531.1686 z"
       id="path3346"
       sodipodi:nodetypes="csccsc" />
    <path
       style="fill:#897a75;fill-opacity:1;fill-rule:evenodd;stroke:none;stroke-width:1px;stroke-linecap:butt;stroke-linejoin:miter;stroke-opacity:1;display:inline"
       d="M 204.64286,502.5 L 228.57143,510.35714 C 228.57143,510.35714 329.28571,521.42857 335.35714,525 C 341.42857,528.57143 360,530.71429 363.57143,529.28571 C 367.14286,527.85714 408.21429,528.21429 413.21429,530.35714 C 418.21429,532.5 427.14286,544.64286 455.35714,525.71429 C 483.57143,506.78571 634.28572,505 649.28572,513.57143 C 664.28572,522.14286 667.5,519.64286 667.5,517.14286 C 667.5,514.64286 686.42857,472.85714 663.57143,472.85714 C 640.71429,472.85714 575,471.07143 566.78572,467.5 C 558.57143,463.92857 544.28572,458.57143 531.07143,467.5 C 517.85714,476.42857 449.28571,488.92857 430.71429,483.21429 C 412.14286,477.5 252.5,466.07143 238.92857,467.85714 C 225.35714,469.64286 205,502.85714 204.64286,502.5 z"
       id="path3348" />
    <path
       style="fill:#d7dbf8;fill-opacity:1;fill-rule:evenodd;stroke:none;stroke-width:1px;stroke-linecap:butt;stroke-linejoin:miter;stroke-opacity:1"
       d="M 322.14286,291.42857 C 322.14286,291.42857 378.57143,262.85714 386.42857,253.57143 C 394.28571,244.28571 442.85714,228.57143 442.14286,222.85714 C 441.42857,217.14286 431.58768,200.47446 427.7996,199.96939 C 424.01153,199.46431 389.66634,188.35263 389.66634,188.35263 C 389.66634,188.35263 391.68665,175.22065 426.78945,176.48334 C 426.78945,176.48334 550.2806,90.115295 551.29075,254.26509 C 551.29075,254.26509 552.3009,263.609 549.27045,265.6293 C 546.23999,267.64961 545.48238,276.2359 545.48238,276.2359 C 545.48238,276.2359 540.17907,279.26636 541.18923,282.54936 C 542.19938,285.83235 536.13846,289.62043 535.12831,291.64073 C 534.11816,293.66104 535.63339,299.72195 532.85547,300.47957 C 530.07755,301.23718 528.30978,309.3184 528.30978,309.3184 C 528.30978,309.3184 522.75394,321.94531 520.4811,321.94531 C 520.4811,321.94531 492.19683,413.61665 392.6968,462.10397 C 392.6968,462.10397 341.43156,485.84256 340.16887,486.34763 L 341.93664,482.8121 C 341.93664,482.8121 335.62318,486.0951 333.85542,486.4739 L 337.13841,480.7918 C 337.13841,480.7918 330.57242,485.59002 328.17331,485.59002 L 331.58257,480.41299 C 331.58257,480.41299 324.1327,484.70614 322.11239,484.57987 L 323.24882,479.78164 C 323.24882,479.78164 283.03571,469.82143 257.67857,478.92857 C 232.32143,488.03571 203.79828,502.51008 188.14091,523.72328 L 187.88837,518.92505 C 187.88837,518.92505 180.31223,522.71313 178.54446,523.2182 C 176.7767,523.72328 179.80715,514.37937 179.80715,514.37937 C 179.80715,514.37937 131.82491,535.84511 129.8046,536.85526 C 127.7843,537.86541 69.953064,581.80705 68.690373,584.07989 C 67.427682,586.35274 42.931483,597.96949 70.205602,565.13953 C 70.205602,565.13953 23.233509,592.41365 31.062191,581.80705 C 38.890873,571.20045 67.427682,539.63318 69.447988,538.11795 C 71.468293,536.60272 134.35029,482.55956 136.11806,481.04433 C 137.88582,479.5291 132.83506,479.5291 132.83506,479.5291 C 132.83506,479.5291 142.17897,468.16489 144.19928,466.14458 C 146.21958,464.12428 151.27034,453.26514 154.55334,451.24483 C 157.83634,449.22453 193.44421,418.16234 195.21198,417.40472 C 196.97975,416.64711 213.8998,396.94913 215.16249,396.19152 C 216.42518,395.43391 217.94041,389.87807 221.72848,386.59507 C 225.51656,383.31207 237.63839,361.59379 260.8719,345.43135 C 260.8719,345.43135 310.62191,293.4085 322.14286,291.42857 z"
       id="path2410"
       sodipodi:nodetypes="csssccc" />
    <path
       style="fill:url(#linearGradient3318);fill-opacity:1;fill-rule:evenodd;stroke:none;stroke-width:1px;stroke-linecap:butt;stroke-linejoin:miter;stroke-opacity:1"
       d="M 442.9375,291.90625 L 324.25,361.59375 L 231.3125,430.28125 C 231.31249,430.28124 209.32416,484.10951 179.40625,515.6875 C 178.65742,518.18912 177.15967,523.61063 178.53125,523.21875 C 180.29902,522.71368 187.875,518.9375 187.875,518.9375 L 188.15625,523.71875 C 200.94779,506.38828 222.30726,493.55167 243.53125,484.46875 C 251.39871,478.89849 372.35867,393.26438 375.78125,388.375 C 379.31677,383.32422 376.28204,393.92656 379.3125,391.90625 C 382.34295,389.88594 402.03125,370.6875 402.03125,370.6875 L 423.75,353 C 423.74999,352.99999 427.79298,354.01444 432.84375,349.46875 C 437.89451,344.92308 443.96875,337.84375 443.96875,337.84375 C 443.96875,337.84374 471.74413,316.12341 469.21875,310.0625 C 466.69338,304.00158 442.9375,291.90625 442.9375,291.90625 z"
       id="path2460" />
    <path
       style="fill:url(#linearGradient3320);fill-opacity:1;fill-rule:evenodd;stroke:none;stroke-width:1px;stroke-linecap:butt;stroke-linejoin:miter;stroke-opacity:1"
       d="M 203.03125,437.34375 L 146.375,463 C 145.50787,464.4395 144.72069,465.62306 144.1875,466.15625 C 142.16719,468.17656 132.84376,479.53124 132.84375,479.53125 C 132.84375,479.53125 137.89276,479.51601 136.125,481.03125 C 134.35723,482.54648 71.457803,536.6098 69.4375,538.125 C 67.417194,539.64023 38.891182,571.20588 31.0625,581.8125 C 23.233818,592.4191 70.218747,565.125 70.21875,565.125 C 42.944631,597.95496 67.424806,586.36659 68.6875,584.09375 C 69.767917,582.149 112.0505,549.86758 125.5625,539.90625 C 121.66035,537.22138 118.28689,534.2914 117.1875,532.3125 C 114.66211,527.76681 146.47304,498.97381 142.9375,498.46875 C 139.40196,497.96367 193.94416,453.50935 199.5,449.46875 C 205.05584,445.42814 203.03125,437.34373 203.03125,437.34375 z"
       id="path2422" />
    <path
       style="fill:#7058b8;fill-opacity:1;fill-rule:evenodd;stroke:none;stroke-width:1px;stroke-linecap:butt;stroke-linejoin:miter;stroke-opacity:1"
       d="M 382.96875,256.6875 C 368.37416,268.01659 322.15626,291.43751 322.15625,291.4375 C 310.6353,293.41743 260.87501,345.43751 260.875,345.4375 C 237.64149,361.59994 225.50682,383.31076 221.71875,386.59375 C 217.93068,389.87675 216.41894,395.42988 215.15625,396.1875 C 213.89356,396.94511 196.98652,416.64864 195.21875,417.40625 C 193.45098,418.16387 157.8455,449.22969 154.5625,451.25 C 153.57542,451.85743 152.42892,453.30543 151.25,455.03125 L 151.09375,471.4375 C 161.97899,464.51645 171.24091,458.79308 173.25,458.0625 C 178.80583,456.04221 201.01174,444.94686 206.0625,440.90625 C 211.11326,436.86563 217.17814,438.86326 221.21875,433.8125 C 225.02904,429.04966 211.7786,448.54665 217.03125,453.75 L 229.3125,437.875 C 228.45964,439.06901 226.90311,445.27234 222.625,454.875 C 233.62126,453.48741 254.91148,440.18835 260.125,435.84375 C 266.18591,430.79299 340.93321,390.875 344.46875,390.875 C 348.00429,390.87501 394.46684,363.62928 407.09375,360.09375 C 419.72064,356.5582 463.15117,311.59724 463.65625,305.03125 C 463.67647,304.76833 463.69859,304.12291 463.71875,303.75 C 463.22854,301.2265 462.51269,298.86084 461.625,296.9375 C 459.74592,292.86615 417.89442,271.91086 382.96875,256.6875 z"
       id="path2420" />
    <path
       style="fill:url(#linearGradient3260);fill-opacity:1;fill-rule:evenodd;stroke:none;stroke-width:1px;stroke-linecap:butt;stroke-linejoin:miter;stroke-opacity:1"
       d="M 491.5625,153.78125 C 459.61755,153.52317 426.78125,176.46875 426.78125,176.46875 C 391.67845,175.20606 389.65624,188.34375 389.65625,188.34375 C 389.65625,188.34375 424.02444,199.46367 427.8125,199.96875 C 431.60058,200.47382 441.44197,217.12946 442.15625,222.84375 C 442.87053,228.55804 394.29465,244.27678 386.4375,253.5625 C 378.58036,262.84821 322.15626,291.43751 322.15625,291.4375 C 310.6353,293.41743 260.87501,345.43751 260.875,345.4375 C 237.64149,361.59994 225.50682,383.31076 221.71875,386.59375 C 217.93068,389.87675 216.41894,395.42988 215.15625,396.1875 C 213.89356,396.94511 196.98652,416.64864 195.21875,417.40625 C 193.45098,418.16387 157.8455,449.22969 154.5625,451.25 C 151.2795,453.27031 146.2078,464.13594 144.1875,466.15625 C 142.16719,468.17656 132.84376,479.53124 132.84375,479.53125 C 132.84375,479.53125 137.89276,479.51601 136.125,481.03125 C 152.59008,470.38678 170.34683,459.1182 173.25,458.0625 C 178.80583,456.04221 201.01174,444.94686 206.0625,440.90625 C 211.11326,436.86563 217.17814,438.86326 221.21875,433.8125 C 225.25937,428.76174 210.10628,450.99572 218.1875,454.53125 C 226.26872,458.06678 254.06409,440.89451 260.125,435.84375 C 266.18591,430.79299 340.93321,390.875 344.46875,390.875 C 348.00429,390.87501 394.46684,363.62928 407.09375,360.09375 C 419.72064,356.5582 463.15117,311.59724 463.65625,305.03125 C 464.16131,298.46527 464.65625,256.03125 464.65625,256.03125 L 497.5,290.375 C 497.50001,290.37499 506.72018,317.59085 520.1875,322.84375 C 520.35345,322.34693 520.46875,321.9375 520.46875,321.9375 C 522.74159,321.9375 528.31253,309.31251 528.3125,309.3125 C 528.3125,309.3125 530.06583,301.22635 532.84375,300.46875 C 535.62167,299.71113 534.11486,293.67657 535.125,291.65625 C 536.13515,289.63595 542.19767,285.8455 541.1875,282.5625 C 540.17734,279.2795 545.46877,276.25 545.46875,276.25 C 545.46875,276.25 546.25079,267.64531 549.28125,265.625 C 552.3117,263.6047 551.28123,254.25 551.28125,254.25 C 550.79196,174.73994 521.57139,154.02369 491.5625,153.78125 z"
       id="path2418" />
    <path
       style="fill:url(#linearGradient3289);fill-opacity:1.0;fill-rule:evenodd;stroke:none;stroke-width:1px;stroke-linecap:butt;stroke-linejoin:miter;stroke-opacity:1"
       d="M 470.98362,233.55696 C 470.98362,233.55696 507.85419,235.32473 510.63211,243.65849 C 513.41003,251.99224 525.02679,259.82093 527.29963,258.81077 C 529.57247,257.80062 533.86562,248.45671 534.11816,245.42625 C 534.3707,242.39579 526.03694,234.31457 528.05724,225.47574 C 530.07755,216.6369 520.4811,198.7067 512.39988,196.43385 C 504.31866,194.16101 518.46079,184.31202 515.93541,180.52395 C 513.41003,176.73588 467.44809,167.64451 458.86179,171.43258 C 450.2755,175.22065 447.75012,202.99985 452.80088,204.51507 C 457.85164,206.0303 471.23616,233.30442 470.98362,233.55696 z"
       id="path2414" />
    <path
       style="fill:url(#linearGradient3328);fill-opacity:1;fill-rule:evenodd;stroke:none;stroke-width:1px;stroke-linecap:butt;stroke-linejoin:miter;stroke-opacity:1"
       d="M 347.74501,478.77149 C 347.74501,478.77149 363.40238,487.35779 364.66507,487.10525 C 365.92776,486.85271 343.7044,547.20933 389.16127,529.02658 C 389.16127,529.02658 358.35162,531.55196 375.52421,489.88317 C 375.52421,489.88317 384.11051,482.8121 387.3935,493.16616 C 390.6765,503.52023 417.69808,479.5291 417.69808,479.5291 C 417.69808,479.5291 367.19045,473.97327 366.68537,472.2055 C 366.1803,470.43773 347.49248,478.51895 347.74501,478.77149 z"
       id="path2426" />
    <path
       style="fill:url(#linearGradient3332);fill-opacity:1;fill-rule:evenodd;stroke:none;stroke-width:1px;stroke-linecap:butt;stroke-linejoin:miter;stroke-opacity:1"
       d="M 333.35034,458.56844 C 333.35034,458.56844 335.87572,470.69027 375.77675,470.69027 L 411.13209,478.77149 C 411.13209,478.77149 388.15112,487.86286 385.12066,495.94408 C 382.0902,504.0253 378.04959,512.6116 385.3732,515.8946 C 392.6968,519.17759 399.01026,518.92505 399.01026,518.92505 C 399.01026,518.92505 387.14096,510.5913 387.14096,505.03546 C 387.14096,499.47962 416.18285,483.06464 437.39605,483.82225 C 437.39605,483.82225 430.83006,473.72073 431.84021,470.94281 C 432.85037,468.16489 358.85669,456.54813 354.81608,457.05321 C 350.77547,457.55829 333.0978,458.3159 333.35034,458.56844 z"
       id="path2424" />
    <path
       style="fill:url(#linearGradient3308);fill-opacity:1;fill-rule:evenodd;stroke:none;stroke-width:1px;stroke-linecap:butt;stroke-linejoin:miter;stroke-opacity:1"
       d="M 335.77112,461.61684 C 344.35742,463.13207 354.81608,466.9022 352.79578,460.84128 C 350.77547,454.78037 351.45071,429.28538 344.20948,427.00117 C 322.92744,426.5177 321.43605,452.98832 335.77112,461.61684 z"
       id="path3299"
       sodipodi:nodetypes="cscc" />
    <path
       style="fill:url(#linearGradient3297);fill-opacity:1;fill-rule:evenodd;stroke:none;stroke-width:1px;stroke-linecap:butt;stroke-linejoin:miter;stroke-opacity:1"
       d="M 482.25,154.34375 C 453.54686,157.79405 426.78125,176.46875 426.78125,176.46875 C 426.69525,176.46566 426.61686,176.47167 426.53125,176.46875 C 425.75229,178.86169 425.34861,180.92762 426.28125,181.03125 C 428.55411,181.28378 436.13594,181.26856 438.15625,182.53125 C 440.17656,183.79393 445.72208,187.09375 448.5,187.09375 C 451.27793,187.09375 461.38087,189.375 463.90625,189.375 C 466.43162,189.375 471.49825,188.85057 474.78125,185.0625 C 477.64695,181.75592 485.90881,163.07526 482.25,154.34375 z"
       id="path3239" />
    <path
       style="fill:#aca5ba;fill-opacity:1;fill-rule:evenodd;stroke:none;stroke-width:1px;stroke-linecap:butt;stroke-linejoin:miter;stroke-opacity:1"
       d="M 471.84375,174.9375 C 468.24944,175.04288 465.2084,176.29509 463.90625,177.25 C 460.11817,180.02791 446.75427,178 443.21875,178 C 441.7205,178 435.51878,176.63046 428.90625,175.0625 C 427.57889,175.917 426.78125,176.46875 426.78125,176.46875 C 391.67845,175.20606 389.65624,188.34375 389.65625,188.34375 C 389.65625,188.34375 424.02444,199.46367 427.8125,199.96875 C 431.60058,200.47382 441.44197,217.12946 442.15625,222.84375 C 442.2324,223.45295 441.71646,224.18331 440.78125,225 C 447.92396,233.05726 461.14543,239.91065 465.1875,242.15625 C 469.73318,244.68163 482.84041,231.03379 480.0625,230.78125 C 477.28458,230.52871 473.50001,221.1875 473.5,221.1875 C 473.5,221.1875 494.73066,224.71669 490.4375,196.9375 C 487.62012,178.7074 478.70561,174.73633 471.84375,174.9375 z"
       id="path2412" />
    <path
       style="fill:url(#linearGradient3281);fill-opacity:1;fill-rule:evenodd;stroke:none;stroke-width:1px;stroke-linecap:butt;stroke-linejoin:miter;stroke-opacity:1"
       d="M 467.70063,240.37549 C 467.70063,240.37549 456.01949,247.89191 452.2958,247.6991 C 427.93277,246.4376 468.08233,302.80068 508.37721,313.37695 C 512.23938,314.39066 505.83389,289.87296 511.8948,288.86281 C 517.95572,287.85266 525.53186,260.57854 512.90496,252.74986 C 500.27805,244.92118 468.45824,240.37549 467.70063,240.37549 z"
       id="path2416"
       sodipodi:nodetypes="cssssc" />
    <path
       sodipodi:type="arc"
       style="opacity:1;fill:#ffcc00;fill-opacity:1;stroke:none;stroke-width:1;stroke-linecap:round;stroke-linejoin:round;stroke-miterlimit:4;stroke-dasharray:none;stroke-dashoffset:56;stroke-opacity:1"
       id="path2465"
       sodipodi:cx="486.26218"
       sodipodi:cy="181.91292"
       sodipodi:rx="8.9651041"
       sodipodi:ry="8.9651041"
       d="m 495.22728,181.91292 a 8.9651041,8.9651041 0 0 1 -8.9651,8.9651 8.9651041,8.9651041 0 0 1 -8.96511,-8.9651 8.9651041,8.9651041 0 0 1 8.96511,-8.96511 8.9651041,8.9651041 0 0 1 8.9651,8.96511 z"
       transform="matrix(1.08004,0,0,1.08004,-37.4066,-10.7728)" />
    <path
       transform="matrix(0.893276,0,0,0.893276,52.1483,23.7076)"
       d="m 495.22728,181.91292 a 8.9651041,8.9651041 0 0 1 -8.9651,8.9651 8.9651041,8.9651041 0 0 1 -8.96511,-8.9651 8.9651041,8.9651041 0 0 1 8.96511,-8.96511 8.9651041,8.9651041 0 0 1 8.9651,8.96511 z"
       sodipodi:ry="8.9651041"
       sodipodi:rx="8.9651041"
       sodipodi:cy="181.91292"
       sodipodi:cx="486.26218"
       id="path3237"
       style="opacity:1;fill:#241f1c;fill-opacity:1;stroke:none;stroke-width:1;stroke-linecap:round;stroke-linejoin:round;stroke-miterlimit:4;stroke-dasharray:none;stroke-dashoffset:56;stroke-opacity:1"
       sodipodi:type="arc" />
    <path
       sodipodi:type="arc"
       style="opacity:1;fill:#ffffff;fill-opacity:1;stroke:none;stroke-width:1;stroke-linecap:round;stroke-linejoin:round;stroke-miterlimit:4;stroke-dasharray:none;stroke-dashoffset:56;stroke-opacity:1"
       id="path3244"
       sodipodi:cx="487.01981"
       sodipodi:cy="185.95352"
       sodipodi:rx="2.1465743"
       sodipodi:ry="2.3991122"
       d="m 489.16638,185.95352 a 2.1465743,2.3991122 0 0 1 -2.14657,2.39911 2.1465743,2.3991122 0 0 1 -2.14658,-2.39911 2.1465743,2.3991122 0 0 1 2.14658,-2.39911 2.1465743,2.3991122 0 0 1 2.14657,2.39911 z"
       transform="matrix(0.705882,0,0,0.705882,144.125,55.6504)" />
    <path
       transform="matrix(0.352941,0,0,0.352941,309.953,118.087)"
       d="m 489.16638,185.95352 a 2.1465743,2.3991122 0 0 1 -2.14657,2.39911 2.1465743,2.3991122 0 0 1 -2.14658,-2.39911 2.1465743,2.3991122 0 0 1 2.14658,-2.39911 2.1465743,2.3991122 0 0 1 2.14657,2.39911 z"
       sodipodi:ry="2.3991122"
       sodipodi:rx="2.1465743"
       sodipodi:cy="185.95352"
       sodipodi:cx="487.01981"
       id="path3246"
       style="opacity:1;fill:#ffffff;fill-opacity:1;stroke:none;stroke-width:1;stroke-linecap:round;stroke-linejoin:round;stroke-miterlimit:4;stroke-dasharray:none;stroke-dashoffset:56;stroke-opacity:1"
       sodipodi:type="arc" />
    <path
       style="fill:url(#linearGradient3273);fill-opacity:1;fill-rule:evenodd;stroke:none;stroke-width:1px;stroke-linecap:butt;stroke-linejoin:miter;stroke-opacity:1"
       d="M 428.90625,175.0625 C 427.57889,175.917 426.78125,176.46875 426.78125,176.46875 C 391.67845,175.20606 389.65624,188.34375 389.65625,188.34375 C 389.65625,188.34375 424.02444,199.46367 427.8125,199.96875 C 428.19362,200.01956 428.63679,200.24356 429.125,200.59375 C 439.9518,202.56405 451.06249,206.4375 451.0625,206.4375 C 446.77678,200.00893 426.06249,191.78125 426.0625,191.78125 C 432.49107,191.42411 472.15626,201.78125 472.15625,201.78125 C 463.58482,192.1384 427.49554,182.12946 426.78125,180.34375 C 426.49074,179.61747 427.56764,177.42116 428.9375,175.0625 C 428.92732,175.06009 428.91643,175.06491 428.90625,175.0625 z"
       id="path3262" />
  </g>
</svg>
